<svg width="200" height="60" viewBox="0 0 200 60" fill="none" xmlns="http://www.w3.org/2000/svg">
<g clip-path="url(#clip0_33866_25)">
<path d="M137 0H18.5C8.2 0 0 8.3 0 18.6V59.3H118.5C128.7 59.3 137 51.1 137 40.8V0Z" fill="#79B928"/>
<path d="M42.1 18.3999H42C40.4 18.3999 38.9 18.7999 37.5 19.4999C37 18.7999 36.2 18.3999 35.2 18.3999C34.2 18.3999 33.4 18.7999 32.9 19.4999C31.5 18.7999 30 18.3999 28.4 18.3999H28.2C25.5 18.3999 23.2 19.2999 21.3 21.0999C19.4 22.8999 18.5 25.0999 18.5 27.5999V31.4999C18.5 34.0999 19.4 36.1999 21.3 37.9999C23.2 39.7999 25.5 40.6999 28.2 40.6999H28.4C29.8 40.6999 31.1 40.3999 32.4 39.8999V41.7999C32.4 42.4999 32.7 43.1999 33.2 43.7999C33.7 44.2999 34.4 44.5999 35.2 44.5999C35.9 44.5999 36.6 44.3999 37.1 43.8999C37.6 43.3999 38 42.8999 38 42.2999C38 42.0999 38 41.9999 38 41.7999V39.9999C39.2 40.4999 40.6 40.7999 42 40.7999H42.2C44.9 40.7999 47.2 39.8999 49.1 38.0999C51 36.2999 51.9 34.0999 51.9 31.5999V27.6999C51.9 25.0999 51 22.9999 49.1 21.1999C47.1 19.2999 44.8 18.3999 42.1 18.3999ZM42.1 35.2999H42C40.9 35.2999 40 34.8999 39.2 34.1999C38.4 33.4999 38 32.5999 38 31.4999V27.5999C38 26.4999 38.4 25.6999 39.2 24.8999C40 24.0999 40.9 23.7999 42 23.7999H42.2C43.3 23.7999 44.2 24.1999 45 24.8999C45.8 25.5999 46.2 26.4999 46.2 27.5999V31.4999C46.2 32.5999 45.8 33.3999 45 34.1999C44.2 34.8999 43.3 35.2999 42.1 35.2999ZM28.3 35.2999H28.1C27 35.2999 26.1 34.8999 25.3 34.1999C24.5 33.4999 24.1 32.5999 24.1 31.4999V27.5999C24.1 26.4999 24.5 25.6999 25.3 24.8999C26.1 24.1999 27 23.7999 28.1 23.7999H28.3C29.4 23.7999 30.3 24.1999 31.1 24.8999C31.9 25.5999 32.3 26.4999 32.3 27.5999V31.4999C32.3 32.5999 31.9 33.3999 31.1 34.1999C30.3 34.8999 29.4 35.2999 28.3 35.2999Z" fill="white"/>
<path d="M64 18.3999H63.8C61 18.3999 58.6 19.2999 56.6 21.0999C54.6 22.8999 53.6 25.0999 53.6 27.5999V31.4999C53.6 34.0999 54.6 36.1999 56.6 37.9999C58.6 39.7999 61 40.6999 63.8 40.6999H64C66.8 40.6999 69.2 39.7999 71.2 37.9999C73.2 36.1999 74.2 33.9999 74.2 31.4999V27.5999C74.2 24.9999 73.2 22.8999 71.2 21.0999C69.2 19.2999 66.7 18.3999 64 18.3999ZM64 35.2999H63.8C62.6 35.2999 61.7 34.8999 60.9 34.1999C60.1 33.4999 59.7 32.5999 59.7 31.4999V27.5999C59.7 26.4999 60.1 25.6999 60.9 24.8999C61.7 24.1999 62.7 23.7999 63.8 23.7999H64C65.2 23.7999 66.1 24.1999 66.9 24.8999C67.7 25.5999 68.1 26.4999 68.1 27.5999V31.4999C68.1 32.4999 67.7 33.3999 66.9 34.1999C66.1 34.8999 65.1 35.2999 64 35.2999Z" fill="white"/>
<path d="M86.2 18.3999H86C84.3 18.3999 82.7 18.7999 81.3 19.4999C80.8 18.7999 79.9 18.3999 78.9 18.3999C78.1 18.3999 77.3 18.6999 76.8 19.1999C76.2 19.6999 75.9 20.3999 75.9 21.0999V41.7999C75.9 42.4999 76.2 43.1999 76.8 43.7999C77.4 44.2999 78.1 44.5999 78.9 44.5999C79.7 44.5999 80.4 44.3999 81 43.7999C81.6 43.2999 81.9 42.5999 81.9 41.8999V39.9999C83.2 40.4999 84.6 40.7999 86 40.7999H86.2C89 40.7999 91.4 39.8999 93.4 38.0999C95.4 36.2999 96.4 34.0999 96.4 31.5999V27.6999C96.4 25.0999 95.4 22.9999 93.4 21.1999C91.4 19.2999 88.9 18.3999 86.2 18.3999ZM86.2 35.2999H86C84.8 35.2999 83.9 34.8999 83.1 34.1999C82.3 33.4999 81.9 32.5999 81.9 31.4999V27.5999C81.9 26.4999 82.3 25.6999 83.1 24.8999C83.9 24.1999 84.9 23.7999 86 23.7999H86.2C87.4 23.7999 88.3 24.1999 89.1 24.8999C89.9 25.5999 90.3 26.4999 90.3 27.5999V31.4999C90.3 32.4999 89.9 33.3999 89.1 34.1999C88.3 34.8999 87.3 35.2999 86.2 35.2999Z" fill="white"/>
<path d="M117.7 19.1999C117.1 18.6999 116.4 18.3999 115.6 18.3999C114.5 18.3999 113.7 18.7999 113.2 19.4999C111.8 18.7999 110.2 18.3999 108.5 18.3999H108.3C105.5 18.3999 103.1 19.2999 101.1 21.0999C99.1 22.8999 98.1 25.0999 98.1 27.5999V31.4999C98.1 34.0999 99.1 36.1999 101.1 37.9999C103.1 39.7999 105.5 40.6999 108.3 40.6999H108.5C110.2 40.6999 111.8 40.2999 113.2 39.5999C113.7 40.2999 114.6 40.6999 115.6 40.6999C116.4 40.6999 117.2 40.3999 117.7 39.8999C118.3 39.3999 118.6 38.6999 118.6 37.8999V21.1999C118.6 20.3999 118.2 19.6999 117.7 19.1999ZM108.4 35.2999H108.2C107 35.2999 106.1 34.8999 105.3 34.1999C104.5 33.4999 104.1 32.5999 104.1 31.4999V27.5999C104.1 26.4999 104.5 25.6999 105.3 24.8999C106.1 24.1999 107.1 23.7999 108.2 23.7999H108.4C109.6 23.7999 110.5 24.1999 111.3 24.8999C112.1 25.5999 112.5 26.4999 112.5 27.5999V31.4999C112.5 32.4999 112.1 33.3999 111.3 34.1999C110.5 34.8999 109.6 35.2999 108.4 35.2999Z" fill="white"/>
<path d="M181.4 0H140.7V40.7C140.7 50.9 149 59.3 159.2 59.3H181.3C191.5 59.3 199.9 50.9 199.9 40.7V18.6C200 8.4 191.6 0 181.4 0Z" fill="#E72F2A"/>
<path d="M184 24.0999H179.9H177.6L173.4 17.0999C173.1 16.5999 172.4 16.3999 171.8 16.6999L171.3 16.9999C170.8 17.2999 170.6 17.9999 170.9 18.5999L172.8 21.6999L174.2 24.0999L176.2 27.3999C176 27.1999 175.7 26.9999 175.5 26.7999L173.3 24.0999H167.2L165 26.7999C164.8 26.9999 164.6 27.2999 164.3 27.3999L166.3 24.0999L167.7 21.6999L169.6 18.5999C169.9 18.0999 169.8 17.2999 169.2 16.9999L168.7 16.6999C168.2 16.3999 167.4 16.4999 167.1 17.0999L162.9 24.0999H160.6H156.5C156 24.0999 155.5 24.5999 155.5 25.0999L155.6 26.9999C155.6 27.4999 156.1 27.7999 156.6 27.7999H157.1L158.8 38.6999C159.3 40.7999 160.7 40.7999 162.7 40.7999H178.5C180.4 40.7999 181.3 40.5999 181.9 38.5999L183.6 27.8999H184.1C184.6 27.8999 185.1 27.4999 185.1 27.0999V24.9999C185.1 24.4999 184.5 24.0999 184 24.0999ZM163 25.6999C163.2 25.3999 163.6 25.2999 163.9 25.4999C164.2 25.6999 164.3 26.0999 164.1 26.3999C163.9 26.6999 163.5 26.7999 163.2 26.5999C163 26.2999 162.8 25.9999 163 25.6999ZM163.7 37.9H163.2C162.7 37.9 162.3 37.5999 162.3 37.2999L161 29.8999C160.9 29.3999 161.3 28.7999 161.9 28.7999H162.4C163 28.7999 163.5 29.1999 163.6 29.6999L164.6 37.2999C164.5 37.6999 164.2 37.9 163.7 37.9ZM168.4 37.9H167.9C167.4 37.9 167 37.5999 167 37.2999L166.4 29.6999C166.4 29.1999 166.8 28.7999 167.3 28.7999H167.8C168.4 28.7999 168.9 29.1999 168.9 29.6999L169.2 37.2999C169.3 37.6999 168.9 37.9 168.4 37.9ZM174 37.2999C174 37.6999 173.5 37.9 173.1 37.9H172.6C172.1 37.9 171.7 37.5999 171.7 37.2999L171.8 29.6999C171.8 29.1999 172.3 28.7999 172.9 28.7999H173.4C174 28.7999 174.4 29.1999 174.4 29.6999L174 37.2999ZM177.6 25.6999C177.8 25.9999 177.7 26.3999 177.4 26.5999C177.1 26.7999 176.7 26.5999 176.5 26.3999C176.3 26.0999 176.4 25.6999 176.7 25.4999C177 25.1999 177.4 25.2999 177.6 25.6999ZM179.8 29.8999L178.7 37.2999C178.6 37.6999 178.3 37.9 177.8 37.9H177.2C176.7 37.9 176.3 37.5999 176.4 37.2999L177.2 29.6999C177.3 29.1999 177.8 28.7999 178.4 28.7999H178.9C179.5 28.7999 179.9 29.3999 179.8 29.8999Z" fill="white"/>
</g>
<defs>
<clipPath id="clip0_33866_25">
<rect width="200" height="59.3" fill="white"/>
</clipPath>
</defs>
</svg>
